<svg xmlns="http://www.w3.org/2000/svg" width="112.095" height="36.344" viewBox="0 0 112.095 36.344"><path d="M-4641.048-763a18.164,18.164,0,0,1,18.171-18.172h0A18.178,18.178,0,0,1-4604.7-763a18.163,18.163,0,0,1-18.171,18.171A18.164,18.164,0,0,1-4641.048-763Zm24.945,8.423a1.129,1.129,0,0,0,1.563-.37h0a1.134,1.134,0,0,0-.39-1.563c-4.775-2.932-10.724-3.6-17.649-2.02a1.126,1.126,0,0,0-.848,1.346,1.124,1.124,0,0,0,1.346.847,29.023,29.023,0,0,1,6.374-.761A18.12,18.12,0,0,1-4616.1-754.576Zm1.823-4.842a1.436,1.436,0,0,0,1.953-.479v-.012a1.4,1.4,0,0,0-.433-1.932,26.6,26.6,0,0,0-20.43-2.4,1.406,1.406,0,0,0-.955,1.76,1.411,1.411,0,0,0,1.76.934,22.344,22.344,0,0,1,6.384-.887A23.054,23.054,0,0,1-4614.28-759.418Zm4.451-6.255a1.694,1.694,0,0,0-.586-2.323c-6.73-4-17.412-4.386-23.838-2.432a1.713,1.713,0,0,0-1.13,2.128,1.709,1.709,0,0,0,2.128,1.13c5.6-1.694,15.262-1.367,21.124,2.106h0A1.646,1.646,0,0,0-4609.829-765.673Zm68.936,14.762a.2.2,0,0,1-.086-.256l.941-2.052a.3.3,0,0,1,.128-.107.427.427,0,0,1,.171.021,3.207,3.207,0,0,0,1.518.427c.6,0,1.047-.192,1.5-1.2l-3.953-9.49h-2.587v9.49a.191.191,0,0,1-.193.192h-2.757a.192.192,0,0,1-.192-.192v-9.49h-1.325a.2.2,0,0,1-.213-.193v-2.394a.21.21,0,0,1,.213-.192h1.325v-.578c0-2.736,1.348-4.167,3.913-4.167a7.417,7.417,0,0,1,2.309.32.205.205,0,0,1,.149.192v2.331a.259.259,0,0,1-.086.171.3.3,0,0,1-.192.02,4.719,4.719,0,0,0-1.56-.277c-.962,0-1.39.492-1.39,1.624v.344h4.659a.185.185,0,0,1,.192.127l3.228,8.443,2.95-8.421a.217.217,0,0,1,.193-.128h2.885a.2.2,0,0,1,.171.085.211.211,0,0,1,.021.192l-4.81,12.4c-1,2.544-2.116,3.506-4.168,3.506A5.779,5.779,0,0,1-4540.894-750.911Zm-47.751.7a.192.192,0,0,1-.193-.192V-766.13a.192.192,0,0,1,.193-.192h2.757a.191.191,0,0,1,.192.192v1.411a4.836,4.836,0,0,1,3.889-1.881c2.886,0,5.814,2.244,5.836,6.5,0,4.275-2.95,6.5-5.836,6.5a4.971,4.971,0,0,1-3.889-1.752v4.958a.191.191,0,0,1-.192.192Zm2.885-9.9a3.424,3.424,0,0,0,3.313,3.677c1.9,0,3.25-1.5,3.25-3.677,0-2.137-1.369-3.676-3.25-3.676A3.437,3.437,0,0,0-4585.76-760.1Zm10.645.043a6.525,6.525,0,0,1,6.647-6.541,6.5,6.5,0,0,1,6.626,6.5,6.525,6.525,0,0,1-6.668,6.52A6.474,6.474,0,0,1-4575.115-760.06Zm3.164-.043a3.524,3.524,0,0,0,3.484,3.7,3.464,3.464,0,0,0,3.463-3.634,3.546,3.546,0,0,0-3.5-3.719A3.442,3.442,0,0,0-4571.952-760.1Zm-30.694,3.847a.2.2,0,0,1-.021-.277l1.688-2.009a.126.126,0,0,1,.127-.064.206.206,0,0,1,.15.042,7.068,7.068,0,0,0,4.917,2.031c1.625,0,2.629-.7,2.629-1.838,0-1-.514-1.583-3.463-2.267-3.484-.833-5.493-1.923-5.493-5,0-2.864,2.33-4.873,5.665-4.873a9.136,9.136,0,0,1,5.942,2.052.2.2,0,0,1,.042.278l-1.517,2.137a.147.147,0,0,1-.129.085.2.2,0,0,1-.149-.043,7.143,7.143,0,0,0-4.233-1.6c-1.431,0-2.394.684-2.394,1.71,0,1.09.535,1.625,3.634,2.352h0c3.762.92,5.3,2.331,5.344,4.9,0,3.035-2.331,5-5.92,5A10.1,10.1,0,0,1-4602.646-756.256Zm42.578-1.175v-6.156h-1.324a.192.192,0,0,1-.193-.192v-2.373a.192.192,0,0,1,.193-.192h1.324v-3.12a.193.193,0,0,1,.192-.193h2.758a.192.192,0,0,1,.192.193v3.12h3.036a.233.233,0,0,1,.235.213v2.373a.193.193,0,0,1-.192.193h-3.035v5.706c0,.9.385,1.3,1.282,1.3a3.366,3.366,0,0,0,1.625-.386.162.162,0,0,1,.192,0,.268.268,0,0,1,.085.171v2.267a.219.219,0,0,1-.106.17,5.152,5.152,0,0,1-2.587.642C-4558.827-753.69-4560.068-754.951-4560.068-757.431Zm7.888,3.549a.191.191,0,0,1-.192-.192v-12.077a.191.191,0,0,1,.192-.192h2.758a.186.186,0,0,1,.192.213v12.056a.191.191,0,0,1-.192.192Zm-.6-15.968a1.989,1.989,0,0,1,1.988-1.988,1.987,1.987,0,0,1,1.987,1.988,1.987,1.987,0,0,1-1.987,1.988A1.989,1.989,0,0,1-4552.779-769.849Z" transform="translate(4641.048 781.172)" fill="#1ed760"/></svg>